<svg width="160" height="180" viewBox="0 0 160 180" fill="none" xmlns="http://www.w3.org/2000/svg">
<g clip-path="url(#clip0_170_1984)">
<rect y="60" width="10" height="10" fill="black"/>
<rect y="50" width="10" height="10" fill="black"/>
<rect x="10" y="40" width="10" height="10" fill="black"/>
<rect x="20" y="40" width="10" height="10" fill="black"/>
<rect x="20" y="30" width="10" height="10" fill="black"/>
<rect x="30" y="20" width="10" height="10" fill="black"/>
<rect x="40" y="10" width="10" height="10" fill="black"/>
<rect x="50" y="10" width="10" height="10" fill="black"/>
<rect x="60" width="10" height="10" fill="black"/>
<rect x="70" width="10" height="10" fill="black"/>
<rect x="80" width="10" height="10" fill="black"/>
<rect x="90" y="10" width="10" height="10" fill="black"/>
<rect x="100" y="10" width="10" height="10" fill="black"/>
<rect x="110" y="20" width="10" height="10" fill="black"/>
<rect x="100" y="30" width="10" height="10" fill="black"/>
<rect x="90" y="40" width="10" height="10" fill="black"/>
<rect x="100" y="50" width="10" height="10" fill="black"/>
<rect x="90" y="60" width="10" height="10" fill="black"/>
<rect x="80" y="70" width="10" height="10" fill="black"/>
<rect x="80" y="80" width="10" height="10" fill="black"/>
<rect x="90" y="90" width="10" height="10" fill="black"/>
<rect x="100" y="90" width="10" height="10" fill="black"/>
<rect x="100" y="80" width="10" height="10" fill="black"/>
<rect x="110" y="70" width="10" height="10" fill="black"/>
<rect x="120" y="60" width="10" height="10" fill="black"/>
<rect x="130" y="60" width="10" height="10" fill="black"/>
<rect x="140" y="60" width="10" height="10" fill="black"/>
<rect x="150" y="70" width="10" height="10" fill="black"/>
<rect x="140" y="80" width="10" height="10" fill="black"/>
<rect x="130" y="80" width="10" height="10" fill="black"/>
<rect x="150" y="90" width="10" height="10" fill="black"/>
<rect x="140" y="100" width="10" height="10" fill="black"/>
<rect x="130" y="110" width="10" height="10" fill="black"/>
<rect x="120" y="110" width="10" height="10" fill="black"/>
<rect x="110" y="120" width="10" height="10" fill="black"/>
<rect x="100" y="130" width="10" height="10" fill="black"/>
<rect x="90" y="140" width="10" height="10" fill="black"/>
<rect x="90" y="150" width="10" height="10" fill="black"/>
<rect x="100" y="160" width="10" height="10" fill="black"/>
<rect x="100" y="170" width="10" height="10" fill="black"/>
<rect x="90" y="170" width="10" height="10" fill="black"/>
<rect x="80" y="140" width="10" height="10" fill="black"/>
<rect x="70" y="150" width="10" height="10" fill="black"/>
<rect x="60" y="160" width="10" height="10" fill="black"/>
<rect x="50" y="170" width="10" height="10" fill="black"/>
<rect x="70" y="160" width="10" height="10" fill="black"/>
<rect x="60" y="140" width="10" height="10" fill="black"/>
<rect x="50" y="140" width="10" height="10" fill="black"/>
<rect x="40" y="140" width="10" height="10" fill="black"/>
<rect x="30" y="130" width="10" height="10" fill="black"/>
<rect x="20" y="120" width="10" height="10" fill="black"/>
<rect x="20" y="110" width="10" height="10" fill="black"/>
<rect x="20" y="100" width="10" height="10" fill="black"/>
<rect x="30" y="90" width="10" height="10" fill="black"/>
<rect x="40" y="80" width="10" height="10" fill="black"/>
<rect x="50" y="70" width="10" height="10" fill="black"/>
<rect x="40" y="70" width="10" height="10" fill="black"/>
<rect x="30" y="70" width="10" height="10" fill="black"/>
<rect x="20" y="70" width="10" height="10" fill="black"/>
<rect x="10" y="80" width="10" height="10" fill="black"/>
<rect x="10" y="70" width="10" height="10" fill="#EA580C"/>
<rect x="10" y="60" width="10" height="10" fill="#FB923C"/>
<rect x="40" y="50" width="10" height="10" fill="#3B82F6"/>
<rect x="40" y="40" width="10" height="10" fill="#3B82F6"/>
<rect x="40" y="30" width="10" height="10" fill="white"/>
<rect x="50" y="40" width="10" height="10" fill="white"/>
<rect x="50" y="50" width="10" height="10" fill="white"/>
<rect x="50" y="60" width="10" height="10" fill="#FDE047"/>
<rect x="40" y="60" width="10" height="10" fill="#FDE047"/>
<rect x="30" y="40" width="10" height="10" fill="#FDE047"/>
<rect x="30" y="30" width="10" height="10" fill="#FDE047"/>
<rect x="40" y="20" width="10" height="10" fill="#FDE047"/>
<rect x="50" y="20" width="10" height="10" fill="#FDE047"/>
<rect x="60" y="20" width="10" height="10" fill="#FDE047"/>
<rect x="70" y="20" width="10" height="10" fill="#FDE047"/>
<rect x="80" y="20" width="10" height="10" fill="#FDE047"/>
<rect x="90" y="20" width="10" height="10" fill="#FDE047"/>
<rect x="100" y="20" width="10" height="10" fill="#FDE047"/>
<rect x="80" y="10" width="10" height="10" fill="#FDE047"/>
<rect x="70" y="10" width="10" height="10" fill="#FDE047"/>
<rect x="80" y="30" width="10" height="10" fill="#FDE047"/>
<rect x="70" y="30" width="10" height="10" fill="#FDE047"/>
<rect x="60" y="30" width="10" height="10" fill="#FDE047"/>
<rect x="70" y="40" width="10" height="10" fill="#FDE047"/>
<rect x="80" y="50" width="10" height="10" fill="#FDE047"/>
<rect x="90" y="50" width="10" height="10" fill="#FDE047"/>
<rect x="70" y="50" width="10" height="10" fill="#FDE047"/>
<rect x="60" y="50" width="10" height="10" fill="#FDE047"/>
<rect x="60" y="60" width="10" height="10" fill="#FDE047"/>
<rect x="70" y="60" width="10" height="10" fill="#FDE047"/>
<rect x="50" y="80" width="10" height="10" fill="#FDE047"/>
<rect x="60" y="80" width="10" height="10" fill="#FDE047"/>
<rect x="40" y="90" width="10" height="10" fill="#FDE047"/>
<rect x="50" y="90" width="10" height="10" fill="#FDE047"/>
<rect x="60" y="90" width="10" height="10" fill="#FDE047"/>
<rect x="70" y="90" width="10" height="10" fill="#FDE047"/>
<rect x="80" y="90" width="10" height="10" fill="#FDE047"/>
<rect x="30" y="100" width="10" height="10" fill="#FDE047"/>
<rect x="40" y="100" width="10" height="10" fill="#FDE047"/>
<rect x="50" y="100" width="10" height="10" fill="#FDE047"/>
<rect x="60" y="100" width="10" height="10" fill="#FDE047"/>
<rect x="70" y="100" width="10" height="10" fill="#FDE047"/>
<rect x="80" y="100" width="10" height="10" fill="#FDE047"/>
<rect x="90" y="100" width="10" height="10" fill="#FDE047"/>
<rect x="120" y="100" width="10" height="10" fill="#FDE047"/>
<rect x="110" y="90" width="10" height="10" fill="#FDE047"/>
<rect x="130" y="90" width="10" height="10" fill="#FDE047"/>
<rect x="140" y="90" width="10" height="10" fill="#FDE047"/>
<rect x="110" y="80" width="10" height="10" fill="#FDE047"/>
<rect x="120" y="80" width="10" height="10" fill="#FDE047"/>
<rect x="120" y="70" width="10" height="10" fill="#FDE047"/>
<rect x="130" y="70" width="10" height="10" fill="#FDE047"/>
<rect x="140" y="70" width="10" height="10" fill="#FDE047"/>
<rect x="30" y="110" width="10" height="10" fill="#FDE047"/>
<rect x="40" y="110" width="10" height="10" fill="#FDE047"/>
<rect x="50" y="110" width="10" height="10" fill="#FDE047"/>
<rect x="60" y="110" width="10" height="10" fill="#FDE047"/>
<rect x="70" y="110" width="10" height="10" fill="#FDE047"/>
<rect x="90" y="110" width="10" height="10" fill="#FDE047"/>
<rect x="100" y="110" width="10" height="10" fill="#FDE047"/>
<rect x="40" y="120" width="10" height="10" fill="#FDE047"/>
<rect x="50" y="120" width="10" height="10" fill="#FDE047"/>
<rect x="60" y="120" width="10" height="10" fill="#FDE047"/>
<rect x="70" y="120" width="10" height="10" fill="#FDE047"/>
<rect x="80" y="120" width="10" height="10" fill="#FDE047"/>
<rect x="100" y="120" width="10" height="10" fill="#A16207"/>
<rect x="90" y="120" width="10" height="10" fill="#A16207"/>
<rect x="80" y="110" width="10" height="10" fill="#A16207"/>
<rect x="110" y="110" width="10" height="10" fill="#A16207"/>
<rect x="100" y="100" width="10" height="10" fill="#A16207"/>
<rect x="110" y="100" width="10" height="10" fill="#A16207"/>
<rect x="120" y="90" width="10" height="10" fill="#A16207"/>
<rect x="130" y="100" width="10" height="10" fill="#A16207"/>
<rect x="70" y="80" width="10" height="10" fill="#A16207"/>
<rect x="60" y="70" width="10" height="10" fill="#A16207"/>
<rect x="70" y="70" width="10" height="10" fill="#A16207"/>
<rect x="80" y="60" width="10" height="10" fill="#A16207"/>
<rect x="80" y="40" width="10" height="10" fill="#A16207"/>
<rect x="90" y="30" width="10" height="10" fill="#A16207"/>
<rect x="60" y="10" width="10" height="10" fill="#A16207"/>
<rect x="60" y="40" width="10" height="10" fill="#A16207"/>
<rect x="50" y="30" width="10" height="10" fill="#A16207"/>
<rect x="30" y="50" width="10" height="10" fill="#A16207"/>
<rect x="30" y="60" width="10" height="10" fill="#A16207"/>
<rect x="30" y="120" width="10" height="10" fill="#A16207"/>
<rect x="40" y="130" width="10" height="10" fill="#A16207"/>
<rect x="50" y="130" width="10" height="10" fill="#A16207"/>
<rect x="60" y="130" width="10" height="10" fill="#A16207"/>
<rect x="70" y="130" width="10" height="10" fill="#A16207"/>
<rect x="80" y="130" width="10" height="10" fill="#A16207"/>
<rect x="90" y="130" width="10" height="10" fill="#A16207"/>
<rect x="70" y="140" width="10" height="10" fill="#A16207"/>
<rect x="60" y="170" width="10" height="10" fill="#CBD5E1"/>
<rect x="70" y="170" width="10" height="10" fill="#78350F"/>
<rect x="80" y="170" width="10" height="10" fill="#78350F"/>
<rect x="90" y="160" width="10" height="10" fill="#78350F"/>
<rect x="80" y="160" width="10" height="10" fill="#78350F"/>
<rect x="80" y="150" width="10" height="10" fill="#78350F"/>
<rect x="10" y="50" width="10" height="10" fill="#EA580C"/>
<rect x="20" y="50" width="10" height="10" fill="#EA580C"/>
<rect x="20" y="60" width="10" height="10" fill="#EA580C"/>
<rect y="70" width="10" height="10" fill="black"/>
</g>
<defs>
<clipPath id="clip0_170_1984">
<rect width="160" height="180" fill="white"/>
</clipPath>
</defs>
</svg>
