<?xml version="1.0" encoding="UTF-8" standalone="no"?>
<svg
   width="360"
   height="730"
   viewBox="0 0 95.25 193.14585"
   version="1.1"
   id="svg8"
   xml:space="preserve"
   sodipodi:docname="IPhone_14_Pro_vector.svg"
   inkscape:version="1.1.2 (b8e25be8, 2022-02-05)"
   xmlns:inkscape="http://www.inkscape.org/namespaces/inkscape"
   xmlns:sodipodi="http://sodipodi.sourceforge.net/DTD/sodipodi-0.dtd"
   xmlns:xlink="http://www.w3.org/1999/xlink"
   xmlns="http://www.w3.org/2000/svg"
   xmlns:svg="http://www.w3.org/2000/svg"
   xmlns:rdf="http://www.w3.org/1999/02/22-rdf-syntax-ns#"
   xmlns:cc="http://creativecommons.org/ns#"
   xmlns:dc="http://purl.org/dc/elements/1.1/"><sodipodi:namedview
     id="namedview183"
     pagecolor="#ffffff"
     bordercolor="#666666"
     borderopacity="1.0"
     inkscape:pageshadow="2"
     inkscape:pageopacity="0.0"
     inkscape:pagecheckerboard="0"
     showgrid="false"
     inkscape:zoom="0.82460522"
     inkscape:cx="212.82911"
     inkscape:cy="347.43898"
     inkscape:window-width="1312"
     inkscape:window-height="847"
     inkscape:window-x="0"
     inkscape:window-y="25"
     inkscape:window-maximized="0"
     inkscape:current-layer="layer2" /><defs
     id="defs2"><linearGradient
       inkscape:collect="always"
       id="linearGradient1175"><stop
         style="stop-color:#28699b;stop-opacity:1"
         offset="0"
         id="stop1171" /><stop
         style="stop-color:#79bcf1;stop-opacity:1"
         offset="1"
         id="stop1173" /></linearGradient><linearGradient
       id="linearGradient26792"><stop
         style="stop-color:#8e7f93;stop-opacity:1;"
         offset="0"
         id="stop26788" /><stop
         style="stop-color:#544b58;stop-opacity:1"
         offset="1"
         id="stop26790" /></linearGradient><linearGradient
       id="linearGradient26128"><stop
         style="stop-color:#000000;stop-opacity:1;"
         offset="0"
         id="stop26753" /><stop
         style="stop-color:#212121;stop-opacity:1;"
         offset="1"
         id="stop26126" /></linearGradient><linearGradient
       id="linearGradient21239"><stop
         style="stop-color:#d9d7de;stop-opacity:1;"
         offset="0"
         id="stop21235" /><stop
         style="stop-color:#43384a;stop-opacity:1;"
         offset="0.08"
         id="stop21271" /><stop
         style="stop-color:#7b6e81;stop-opacity:1;"
         offset="0.14"
         id="stop21243" /><stop
         style="stop-color:#7b6e81;stop-opacity:1;"
         offset="0.86000001"
         id="stop21245" /><stop
         style="stop-color:#5f5365;stop-opacity:1;"
         offset="0.92826527"
         id="stop21275" /><stop
         style="stop-color:#b0a8b6;stop-opacity:1;"
         offset="1"
         id="stop21237" /></linearGradient><linearGradient
       xlink:href="#linearGradient21239"
       id="linearGradient21241"
       x1="2.5680652"
       y1="51.356941"
       x2="2.5680652"
       y2="65.711937"
       gradientUnits="userSpaceOnUse" /><linearGradient
       xlink:href="#linearGradient21239"
       id="linearGradient21285"
       x1="2.158643"
       y1="37.490112"
       x2="2.158643"
       y2="44.488182"
       gradientUnits="userSpaceOnUse" /><linearGradient
       xlink:href="#linearGradient21239"
       id="linearGradient21293"
       x1="95.038589"
       y1="61.461887"
       x2="95.038589"
       y2="84.16124"
       gradientUnits="userSpaceOnUse" /><linearGradient
       xlink:href="#linearGradient21239"
       id="linearGradient21301"
       x1="3.0371306"
       y1="70.03154"
       x2="3.0371306"
       y2="84.386528"
       gradientUnits="userSpaceOnUse" /><filter
       style="color-interpolation-filters:sRGB"
       id="filter16183"
       x="-0.0046202475"
       y="-0.0022210967"
       width="1.0092405"
       height="1.0044422"><feGaussianBlur
         stdDeviation="0.17728813"
         id="feGaussianBlur16185" /></filter><filter
       style="color-interpolation-filters:sRGB"
       id="filter16275"
       x="-0.0046558379"
       y="-0.0022129644"
       width="1.0093117"
       height="1.0044259"><feGaussianBlur
         stdDeviation="0.17551579"
         id="feGaussianBlur16277" /></filter><filter
       style="color-interpolation-filters:sRGB"
       id="filter5343"
       x="-0.19227619"
       width="1.3845524"
       y="-0.082464501"
       height="1.164929"><feGaussianBlur
         stdDeviation="0.030983682"
         id="feGaussianBlur5345" /></filter><filter
       style="color-interpolation-filters:sRGB"
       id="filter5347"
       x="-0.10877967"
       width="1.2175593"
       y="-0.082313926"
       height="1.1646279"><feGaussianBlur
         stdDeviation="0.030983682"
         id="feGaussianBlur5349" /></filter><linearGradient
       xlink:href="#linearGradient26128"
       id="linearGradient26130"
       x1="39.382565"
       y1="1.3978949"
       x2="39.382565"
       y2="2.0960436"
       gradientUnits="userSpaceOnUse" /><linearGradient
       xlink:href="#linearGradient26792"
       id="linearGradient26794"
       x1="73.445778"
       y1="0.26458335"
       x2="73.445778"
       y2="1.3978949"
       gradientUnits="userSpaceOnUse" /><linearGradient
       xlink:href="#linearGradient26792"
       id="linearGradient30502"
       gradientUnits="userSpaceOnUse"
       x1="73.445778"
       y1="0.26458335"
       x2="73.445778"
       y2="1.3978949"
       gradientTransform="matrix(1,0,0,1.2402491,-52.947877,-94.596343)" /><linearGradient
       xlink:href="#linearGradient26792"
       id="linearGradient30538"
       gradientUnits="userSpaceOnUse"
       gradientTransform="matrix(1,0,0,1.2402491,-52.947877,0.65366002)"
       x1="73.445778"
       y1="0.26458335"
       x2="73.445778"
       y2="1.3978949" /><linearGradient
       xlink:href="#linearGradient26792"
       id="linearGradient30612"
       gradientUnits="userSpaceOnUse"
       x1="73.445778"
       y1="0.26458335"
       x2="73.445778"
       y2="1.3978949"
       gradientTransform="translate(-95.250006,-193.14584)" /><linearGradient
       xlink:href="#linearGradient26792"
       id="linearGradient30614"
       gradientUnits="userSpaceOnUse"
       gradientTransform="matrix(1,0,0,1.2402491,-246.09371,0.65366284)"
       x1="73.445778"
       y1="0.26458335"
       x2="73.445778"
       y2="1.3978949" /><linearGradient
       xlink:href="#linearGradient26792"
       id="linearGradient30616"
       gradientUnits="userSpaceOnUse"
       gradientTransform="matrix(1,0,0,1.2402491,-246.09371,-94.596346)"
       x1="73.445778"
       y1="0.26458335"
       x2="73.445778"
       y2="1.3978949" /><linearGradient
       inkscape:collect="always"
       xlink:href="#linearGradient1175"
       id="linearGradient1177"
       x1="46.713448"
       y1="6.7319479"
       x2="47.253105"
       y2="186.09303"
       gradientUnits="userSpaceOnUse" /></defs><metadata
     id="metadata5"><rdf:RDF><cc:Work
         rdf:about=""><dc:format>image/svg+xml</dc:format><dc:type
           rdf:resource="http://purl.org/dc/dcmitype/StillImage" /></cc:Work></rdf:RDF></metadata><g
     id="layer2"><g
       id="g1933"><g
         id="g17770"
         transform="translate(-0.51704961)"><path
           id="rect17160"
           style="fill:#443c46;fill-opacity:1;stroke-width:0.271631;stop-color:#000000"
           d="M 0.73817982,37.288738 H 2.1461248 c 0.1225062,0 0.2211302,0.09862 0.2211302,0.22113 v 6.95856 c 0,0.122506 -0.098624,0.22113 -0.2211302,0.22113 H 0.73817982 c -0.12250614,0 -0.22113021,-0.09862 -0.22113021,-0.22113 v -6.95856 c 0,-0.122506 0.0986241,-0.22113 0.22113021,-0.22113 z" /><path
           id="rect17160-5"
           style="fill:url(#linearGradient21285);stroke-width:0.264137;stop-color:#000000;fill-opacity:1"
           d="M 0.72566155,37.490111 H 2.1586431 c 0.115571,0 0.2086119,0.09325 0.2086119,0.209095 v 6.57988 c 0,0.11584 -0.093041,0.209097 -0.2086119,0.209097 H 0.72566155 c -0.11557102,0 -0.20861194,-0.09325 -0.20861194,-0.209097 v -6.57988 c 0,-0.115839 0.0930409,-0.209095 0.20861194,-0.209095 z" /></g><g
         id="g17766"
         transform="translate(-0.9264717)"><path
           id="rect17160-9"
           style="fill:#443c46;fill-opacity:1;stroke-width:0.271631;stop-color:#000000"
           d="m 1.1476019,51.155568 h 1.407945 c 0.1225062,0 0.2211302,0.09862 0.2211302,0.22113 V 65.69218 c 0,0.122506 -0.098624,0.22113 -0.2211302,0.22113 h -1.407945 c -0.1225061,0 -0.2211302,-0.09862 -0.2211302,-0.22113 V 51.376698 c 0,-0.122506 0.0986241,-0.22113 0.2211302,-0.22113 z" /><path
           id="rect17160-5-4"
           style="fill:url(#linearGradient21241);fill-opacity:1;stroke-width:0.264137;stop-color:#000000"
           d="m 1.1350836,51.356941 h 1.4329816 c 0.115571,0 0.2086119,0.09325 0.2086119,0.209095 v 13.936802 c 0,0.11584 -0.093041,0.209097 -0.2086119,0.209097 H 1.1350836 c -0.115571,0 -0.2086119,-0.09325 -0.2086119,-0.209097 V 51.566036 c 0,-0.115839 0.0930409,-0.209095 0.2086119,-0.209095 z" /></g><g
         id="g17762"
         transform="translate(-1.3955372)"><path
           id="rect17160-9-0"
           style="fill:#443c46;fill-opacity:1;stroke-width:0.271631;stop-color:#000000"
           d="m 1.6166674,69.830164 h 1.407945 c 0.1225062,0 0.2211302,0.09862 0.2211302,0.22113 v 14.315482 c 0,0.122506 -0.098624,0.22113 -0.2211302,0.22113 h -1.407945 c -0.1225061,0 -0.2211302,-0.09862 -0.2211302,-0.22113 V 70.051294 c 0,-0.122506 0.098624,-0.22113 0.2211302,-0.22113 z" /><path
           id="rect17160-5-4-4"
           style="fill:url(#linearGradient21301);stroke-width:0.264137;stop-color:#000000;fill-opacity:1"
           d="m 1.6041491,70.031537 h 1.4329816 c 0.115571,0 0.2086119,0.09325 0.2086119,0.209095 v 13.936802 c 0,0.11584 -0.093041,0.209097 -0.2086119,0.209097 H 1.6041491 c -0.115571,0 -0.2086119,-0.09325 -0.2086119,-0.209097 V 70.240632 c 0,-0.115839 0.093041,-0.209095 0.2086119,-0.209095 z" /></g><g
         id="g17774"
         transform="translate(0.00280611)"><path
           id="rect17160-9-0-0"
           style="fill:#443c46;fill-opacity:1;stroke-width:0.271631;stop-color:#000000"
           d="m 95.026068,61.260513 h -1.407945 c -0.122506,0 -0.22113,0.09862 -0.22113,0.22113 v 22.659838 c 0,0.122506 0.09862,0.22113 0.22113,0.22113 h 1.407945 c 0.122506,0 0.22113,-0.09862 0.22113,-0.22113 V 61.481643 c 0,-0.122506 -0.09862,-0.22113 -0.22113,-0.22113 z" /><path
           id="rect17160-5-4-4-4"
           style="fill:url(#linearGradient21293);stroke-width:0.264137;stop-color:#000000;fill-opacity:1"
           d="m 95.038586,61.461886 h -1.432981 c -0.115572,0 -0.208612,0.09325 -0.208612,0.209095 v 22.281158 c 0,0.11584 0.09304,0.209097 0.208612,0.209097 h 1.432981 c 0.115571,0 0.208612,-0.09325 0.208612,-0.209097 V 61.670981 c 0,-0.115839 -0.09304,-0.209095 -0.208612,-0.209095 z" /></g><g
         id="g16333"
         transform="translate(-155.34829)"><rect
           style="fill:#e8e4ea;fill-opacity:1;stroke:#443c46;stroke-width:0.529167;stroke-dasharray:none;stroke-opacity:1;paint-order:stroke fill markers;stop-color:#000000"
           id="rect10597-8"
           width="93.286369"
           height="192.61667"
           x="156.33011"
           y="0.26458648"
           ry="16.195105" /><rect
           style="fill:#49454b;fill-opacity:1;stroke:none;stroke-width:0.264583;stroke-dasharray:none;stroke-opacity:1;paint-order:normal;filter:url(#filter16183);stop-color:#000000"
           id="rect15865-3-6"
           width="92.092796"
           height="191.56821"
           x="156.9269"
           y="0.78881538"
           ry="15.974319" /><rect
           style="fill:#7b6e81;fill-opacity:1;stroke:none;stroke-width:0.264583;stroke-dasharray:none;stroke-opacity:1;paint-order:normal;stop-color:#000000"
           id="rect15865-3"
           width="92.092796"
           height="191.56821"
           x="156.9269"
           y="0.78881747"
           ry="15.974319" /><rect
           style="fill:#000000;fill-opacity:1;stroke:none;stroke-width:0.264583;stroke-dasharray:none;stroke-opacity:1;paint-order:normal;filter:url(#filter16275);stop-color:#000000"
           id="rect11865-4-0-4-5"
           width="90.475204"
           height="190.35005"
           x="157.73569"
           y="1.3978949"
           ry="15.063909" /><rect
           style="fill:#000000;fill-opacity:1;stroke:none;stroke-width:0.264583;stroke-dasharray:none;stroke-opacity:1;paint-order:normal;stop-color:#000000"
           id="rect11865-4-0-4-5-3"
           width="90.475204"
           height="190.35005"
           x="157.73569"
           y="1.3978949"
           ry="15.063909" /></g><rect
         style="fill:url(#linearGradient1177);fill-opacity:1;stroke:none;stroke-width:3.18558;stroke-dasharray:none;stroke-opacity:1;paint-order:normal;stop-color:#000000"
         id="rect16387"
         width="85.246857"
         height="184.47499"
         x="5.0015678"
         y="4.3354244"
         ry="11.486582" /><g
         id="g30627"><rect
           style="fill:url(#linearGradient26794);fill-opacity:1;stroke:none;stroke-width:0.185714;stroke-dasharray:none;stroke-opacity:1;paint-order:normal;stop-color:#000000"
           id="rect15767"
           width="1.2590705"
           height="1.1333115"
           x="73.445778"
           y="0.26458335" /><rect
           style="fill:url(#linearGradient30502);fill-opacity:1;stroke:none;stroke-width:0.206823;stroke-dasharray:none;stroke-opacity:1;paint-order:normal;stop-color:#000000"
           id="rect15767-1"
           width="1.2590705"
           height="1.4055886"
           x="20.497898"
           y="-94.268188"
           transform="rotate(90)" /><rect
           style="fill:url(#linearGradient30538);fill-opacity:1;stroke:none;stroke-width:0.206823;stroke-dasharray:none;stroke-opacity:1;paint-order:normal;stop-color:#000000"
           id="rect15767-1-0"
           width="1.2590705"
           height="1.4055886"
           x="20.497898"
           y="0.98181736"
           transform="matrix(0,1,1,0,0,0)" /><rect
           style="fill:url(#linearGradient30612);fill-opacity:1;stroke:none;stroke-width:0.185714;stroke-dasharray:none;stroke-opacity:1;paint-order:normal;stop-color:#000000"
           id="rect15767-0"
           width="1.2590705"
           height="1.1333115"
           x="-21.804228"
           y="-192.88126"
           transform="scale(-1)" /><rect
           style="fill:url(#linearGradient30614);fill-opacity:1;stroke:none;stroke-width:0.206823;stroke-dasharray:none;stroke-opacity:1;paint-order:normal;stop-color:#000000"
           id="rect15767-1-02"
           width="1.2590705"
           height="1.4055886"
           x="-172.64793"
           y="0.98181736"
           transform="rotate(-90)" /><rect
           style="fill:url(#linearGradient30616);fill-opacity:1;stroke:none;stroke-width:0.206823;stroke-dasharray:none;stroke-opacity:1;paint-order:normal;stop-color:#000000"
           id="rect15767-1-0-8"
           width="1.2590705"
           height="1.4055886"
           x="-172.64793"
           y="-94.268188"
           transform="matrix(0,-1,-1,0,0,0)" /></g><path
         id="path14224"
         style="fill:url(#linearGradient26130);fill-opacity:1;stroke:none;stroke-width:0.264583px;stroke-linecap:butt;stroke-linejoin:miter;stroke-opacity:1"
         d="m 37.360252,1.3978949 c 1.05131,0 1.02412,0.2164193 1.24179,0.4619873 0.15876,0.1791075 0.36327,0.2361613 0.76584,0.2361613 h 16.51424 c 0.40258,0 0.60657,-0.057054 0.76533,-0.2361613 0.21767,-0.245568 0.19099,-0.4619873 1.2423,-0.4619873 z" /><rect
         style="fill:#000000;fill-opacity:1;stroke:none;stroke-width:0.264583;stroke-dasharray:none;stroke-opacity:1;paint-order:normal;stop-color:#000000"
         id="rect16441"
         width="27.19771"
         height="8.0999603"
         x="34.026146"
         y="6.7034149"
         ry="4.0499802" /><g
         id="g1832"
         transform="matrix(1.2257754,0,0,1.2257754,-12.779487,-6.131871)"><circle
           style="color:#000000;display:inline;overflow:visible;visibility:visible;fill:#0a0a0a;fill-opacity:1;fill-rule:nonzero;stroke:none;stroke-width:0.025818;stroke-linecap:round;stroke-linejoin:miter;stroke-miterlimit:4;stroke-dasharray:none;stroke-dashoffset:0;stroke-opacity:1;marker:none;enable-background:accumulate"
           id="path5263"
           cx="57.21339"
           cy="13.775171"
           r="1.3121531" /><circle
           style="color:#000000;display:inline;overflow:visible;visibility:visible;fill:#0a0d13;fill-opacity:1;fill-rule:nonzero;stroke:none;stroke-width:0.0198752;stroke-linecap:round;stroke-linejoin:miter;stroke-miterlimit:4;stroke-dasharray:none;stroke-dashoffset:0;stroke-opacity:1;marker:none;enable-background:accumulate"
           id="path5265"
           cx="57.21339"
           cy="13.775171"
           r="0.8093546" /><circle
           style="color:#000000;display:inline;overflow:visible;visibility:visible;fill:#091427;fill-opacity:1;fill-rule:nonzero;stroke:none;stroke-width:0.0198752;stroke-linecap:round;stroke-linejoin:miter;stroke-miterlimit:4;stroke-dasharray:none;stroke-dashoffset:0;stroke-opacity:1;marker:none;enable-background:accumulate"
           id="path5267"
           cx="57.21339"
           cy="13.775171"
           r="0.61666459" /><path
           style="display:inline;fill:#235a91;fill-opacity:0.556075;fill-rule:evenodd;stroke:none;stroke-width:0.0264583;stroke-linecap:butt;stroke-linejoin:miter;stroke-miterlimit:4;stroke-dasharray:none;stroke-opacity:1;filter:url(#filter5343)"
           d="m -47.128431,5.4302366 c -0.09735,0.010246 -0.235679,0.1588277 -0.245928,0.4508659 -0.01024,0.292038 0.117842,0.4508656 0.189571,0.4508656 0.07173,0 0.368889,-0.4252483 0.05635,-0.9017315 z"
           id="path5271"
           transform="matrix(0.75118992,0,0,0.75118992,92.191291,9.2834671)" /><path
           style="display:inline;fill:#235a91;fill-opacity:0.556075;fill-rule:evenodd;stroke:none;stroke-width:0.0264583;stroke-linecap:butt;stroke-linejoin:miter;stroke-miterlimit:4;stroke-dasharray:none;stroke-opacity:1;filter:url(#filter5347)"
           d="m -46.429328,5.3279691 c -0.153553,0.047247 -0.183083,0.2952938 -0.177178,0.4370348 0.0059,0.1417412 0.206706,0.5138116 0.448847,0.4311293 0.242142,-0.082682 0.283483,-0.3897882 0.183084,-0.5964939 -0.100401,-0.2067057 -0.283483,-0.3543525 -0.454753,-0.2716702 z"
           id="path5273"
           transform="matrix(0.75118992,0,0,0.75118992,92.191291,9.2834671)" /></g></g></g></svg>
